<?xml version="1.0" standalone="no"?>
<!DOCTYPE svg PUBLIC "-//W3C//DTD SVG 20010904//EN"
 "http://www.w3.org/TR/2001/REC-SVG-20010904/DTD/svg10.dtd">
<svg version="1.0" xmlns="http://www.w3.org/2000/svg"
 width="200.000000pt" height="200.000000pt" viewBox="0 0 200.000000 200.000000"
 preserveAspectRatio="xMidYMid meet">
<metadata>
Created by potrace 1.11, written by Peter Selinger 2001-2013
</metadata>
<g transform="translate(0.000000,200.000000) scale(0.100000,-0.100000)"
fill="#000000" stroke="none">
<path d="M325 1428 c-57 -20 -94 -57 -130 -132 -41 -85 -43 -108 -14 -137 31
-31 113 -23 168 15 45 31 111 150 111 198 0 27 -22 57 -43 59 -7 0 -23 2 -37
4 -14 2 -38 -1 -55 -7z m62 -64 c7 -18 -42 -127 -66 -148 -26 -22 -67 -28 -81
-11 -9 11 -6 26 15 72 14 32 36 68 47 80 25 27 76 31 85 7z"/>
<path d="M624 1418 c-55 -26 -77 -51 -113 -123 -35 -73 -39 -114 -13 -138 22
-20 87 -24 127 -8 34 14 97 70 90 81 -7 12 -55 3 -73 -13 -27 -24 -81 -32 -88
-13 -9 22 33 120 63 151 32 32 78 34 86 4 8 -29 71 -24 75 7 8 58 -80 88 -154
52z"/>
<path d="M946 1430 c-78 -4 -90 -8 -104 -27 -14 -22 -13 -23 9 -24 13 -1 32
-1 42 0 9 1 17 -2 17 -8 0 -5 -23 -58 -51 -117 -51 -110 -52 -126 -5 -117 15
3 29 20 45 56 12 29 37 81 55 117 31 63 33 65 70 65 35 1 66 22 66 46 0 11
-49 14 -144 9z"/>
<path d="M1230 1426 c-77 -20 -113 -55 -155 -151 -37 -83 -33 -115 18 -134 49
-19 132 9 175 58 24 27 67 112 78 155 14 57 -40 91 -116 72z m40 -60 c9 -12 6
-27 -16 -76 -15 -34 -38 -70 -52 -81 -30 -23 -70 -25 -79 -3 -6 16 20 82 50
127 29 43 75 58 97 33z"/>
<path d="M1427 1428 c-17 -10 2 -26 34 -30 l27 -3 -43 -115 c-26 -70 -40 -119
-34 -125 15 -16 28 7 72 126 l42 114 38 6 c41 6 54 15 43 26 -10 10 -164 11
-179 1z"/>
<path d="M1661 1428 c-18 -6 -36 -46 -91 -201 -21 -60 -12 -69 70 -68 66 0 82
5 74 24 -3 8 -24 12 -59 11 -60 -1 -61 1 -41 56 13 35 13 35 72 35 48 0 59 3
62 18 3 14 -5 17 -52 17 l-55 0 13 38 c12 35 15 37 62 40 75 4 99 11 85 25
-13 13 -110 16 -140 5z"/>
<path d="M1857 1433 c-3 -5 -21 -53 -41 -108 -21 -55 -41 -109 -46 -121 -12
-31 3 -46 46 -46 96 1 104 2 104 17 0 16 -4 17 -67 17 -24 0 -43 4 -43 9 0 4
9 32 21 61 11 29 22 60 24 68 2 8 11 35 19 59 9 24 16 45 16 47 0 7 -29 4 -33
-3z"/>
<path d="M102 1068 c-26 -33 -50 -103 -41 -120 10 -19 27 -23 45 -10 16 10 54
88 54 111 0 28 -39 41 -58 19z"/>
<path d="M266 1058 c-21 -32 -96 -194 -96 -207 0 -19 36 -31 53 -18 28 21 110
210 99 227 -15 24 -39 23 -56 -2z"/>
<path d="M437 1063 c-8 -10 -31 -52 -50 -93 -19 -41 -51 -108 -71 -149 -40
-84 -40 -114 1 -109 28 3 29 5 67 88 13 30 45 97 70 149 36 73 43 97 35 112
-12 24 -31 24 -52 2z"/>
<path d="M601 1059 c-12 -13 -21 -26 -21 -30 0 -3 -38 -86 -85 -184 -122 -253
-118 -242 -93 -259 29 -21 41 -12 71 53 14 31 63 133 107 226 45 92 80 177 78
189 -4 29 -32 31 -57 5z"/>
<path d="M773 1068 c-10 -12 -34 -61 -169 -345 -29 -62 -51 -119 -48 -127 7
-19 41 -27 53 -12 6 7 45 84 87 172 131 274 137 287 126 304 -12 20 -36 24
-49 8z"/>
<path d="M931 1054 c-12 -15 -21 -30 -21 -34 0 -5 -29 -69 -65 -144 -53 -109
-64 -139 -56 -155 23 -43 45 -18 129 152 68 138 81 171 72 187 -15 27 -35 25
-59 -6z"/>
<path d="M1114 1072 c-15 -9 -104 -194 -104 -214 0 -21 24 -40 43 -33 18 7
112 204 108 225 -3 14 -19 30 -31 30 -3 0 -10 -4 -16 -8z"/>
<path d="M1262 1073 c-7 -3 -24 -29 -38 -59 -25 -53 -25 -56 -9 -74 23 -26 41
-15 74 46 l26 48 272 1 c267 0 307 5 290 33 -6 9 -589 13 -615 5z"/>
</g>
</svg>
